<?xml version="1.0" encoding="UTF-8"?>
<svg width="1200pt" height="1200pt" version="1.1" viewBox="0 0 1200 1200" xmlns="http://www.w3.org/2000/svg">
 <defs>
  <clipPath id="a">
   <path d="m304 222.14h592v755.71h-592z"/>
  </clipPath>
 </defs>
 <path d="m60 0h1080c33.137 0 60 33.137 60 60v1080c0 33.137-26.863 60-60 60h-1080c-33.137 0-60-33.137-60-60v-1080c0-33.137 26.863-60 60-60z" fill="#c83c51"/>
 <g clip-path="url(#a)">
  <path d="m894.93 962.6-46.961-493.61c-0.57812-6.082-5.6992-10.715-11.805-10.688h-70.852v-175.94c0-0.39063 0.22266-0.74219 0.22266-1.1797l0.003906-0.003906c0.003907-3.8242-1.8438-7.4141-4.9609-9.6328l-45.957-45.945c-2.2109-2.2148-5.2148-3.4609-8.3477-3.4609h-212.54c-3.1328 0-6.1367 1.2461-8.3477 3.4609l-47.23 47.23h-0.003906c-0.95313 0.98437-1.7227 2.125-2.2773 3.3789-0.14844 0.36328-0.28125 0.73047-0.39062 1.1094-0.35547 1.0078-0.56641 2.0625-0.625 3.1289-0.070313 0.24219-0.125 0.48438-0.16797 0.73047v177.12h-70.848c-6.1055-0.027344-11.227 4.6055-11.809 10.688l-47.23 495.94c-0.31641 3.3203 0.78516 6.6211 3.0352 9.082 2.25 2.4648 5.4375 3.8633 8.7734 3.8477h566.79c0.074219 0.003906 0.14844 0.003906 0.22266 0 3.7461 0.003906 7.2734-1.7656 9.5039-4.7773 2.2344-3.0078 2.9023-6.8945 1.8086-10.48zm-389.39-504.3v-165.31h188.93v165.31zm212.54-165.31h23.617v165.31h-23.617zm-219.46-47.23h202.77l23.617 23.617-250-0.003906zm-40.312 47.23h23.617v165.31h-23.617zm-128.71 661.25 44.977-472.32h450.86l44.977 472.32z" fill="#fff"/>
 </g>
 <path d="m540.96 611.81c-29.297 0-47.23 48.934-47.23 75.57v0.003906c-0.44141 11.363 2.7578 22.574 9.1289 31.996s15.582 16.566 26.293 20.395v72.773c0 6.5195 5.2891 11.809 11.809 11.809 6.5234 0 11.809-5.2891 11.809-11.809v-72.773c10.711-3.8281 19.922-10.973 26.293-20.395s9.5703-20.633 9.1328-31.996c0-26.641-17.938-75.574-47.234-75.574zm0 106.27c-7.1445-1.0664-13.598-4.8594-18.004-10.586-4.4023-5.7266-6.4141-12.938-5.6133-20.113 0-21.926 15.066-51.957 23.617-51.957 8.5508 0 23.617 30.027 23.617 51.957 0.80469 7.1758-1.2109 14.387-5.6133 20.113-4.4062 5.7266-10.859 9.5195-18.004 10.586z" fill="#fff"/>
 <path d="m647.23 740.02v72.527c0 6.5195 5.2852 11.809 11.809 11.809 6.5195 0 11.809-5.2891 11.809-11.809v-72.527c10.109-2.6094 19.066-8.4961 25.477-16.738s9.9062-18.375 9.9453-28.816v-70.848c0-6.5195-5.2852-11.809-11.809-11.809-6.5195 0-11.809 5.2891-11.809 11.809v59.039h-11.805v-59.039c0-6.5195-5.2891-11.809-11.809-11.809-6.5234 0-11.809 5.2891-11.809 11.809v59.039h-11.809v-59.039c0-6.5195-5.2852-11.809-11.809-11.809-6.5195 0-11.809 5.2891-11.809 11.809v70.848c0.039062 10.441 3.5391 20.574 9.9453 28.816 6.4102 8.2422 15.371 14.129 25.48 16.738zm32.246-33.746c-4.2227 7.2969-12.012 11.789-20.438 11.789-8.4297 0-16.219-4.4922-20.441-11.789z" fill="#fff"/>
 <path d="m777.12 706.27c0-46.977-18.66-92.027-51.875-125.24-33.219-33.219-78.27-51.879-125.25-51.879-46.973 0-92.023 18.66-125.24 51.879-33.215 33.215-51.875 78.266-51.875 125.24 0 46.977 18.66 92.027 51.875 125.24 33.219 33.219 78.27 51.879 125.24 51.879 46.961-0.054687 91.98-18.73 125.19-51.938 33.203-33.203 51.883-78.223 51.934-125.18zm-330.62 0c0-40.711 16.176-79.754 44.961-108.54 28.789-28.789 67.832-44.961 108.54-44.961 40.715 0 79.758 16.172 108.55 44.961 28.785 28.789 44.961 67.832 44.961 108.54 0 40.711-16.176 79.758-44.961 108.54-28.789 28.789-67.832 44.961-108.55 44.961-40.695-0.042969-79.715-16.23-108.49-45.008-28.781-28.777-44.969-67.797-45.012-108.5z" fill="#fff"/>
 <path d="m439.41 567.06c-5.1484-3.9727-12.539-3.0391-16.531 2.0898-30.66 39.129-47.293 87.418-47.234 137.12 0 6.5234 5.2891 11.809 11.809 11.809s11.809-5.2852 11.809-11.809c-0.0625-44.453 14.797-87.645 42.203-122.65 4.0039-5.1445 3.082-12.559-2.0547-16.566z" fill="#fff"/>
 <path d="m470.11 552.77c5.5664-0.054687 10.32-4.0273 11.367-9.4961 1.043-5.4648-1.9102-10.91-7.0625-13.016-5.1523-2.1055-11.074-0.28516-14.156 4.3516s-2.4688 10.801 1.4688 14.734c2.2617 2.1562 5.2578 3.3789 8.3828 3.4258z" fill="#fff"/>
 <path d="m711.49 873.07c-32.953 22.164-71.777 33.98-111.49 33.938-6.5195 0-11.805 5.2852-11.805 11.809 0 6.5195 5.2852 11.805 11.805 11.805 44.406 0.046875 87.816-13.164 124.67-37.938 5.4141-3.6406 6.8555-10.98 3.2148-16.395-3.6367-5.418-10.977-6.8594-16.395-3.2188z" fill="#fff"/>
 <path d="m756.93 839.59c-3.3555 3.3867-4.3477 8.457-2.5156 12.855 1.832 4.4023 6.1328 7.2695 10.898 7.2695 4.7695 0 9.0664-2.8672 10.902-7.2695 1.832-4.3984 0.83984-9.4688-2.5156-12.855-4.7383-4.3672-12.035-4.3672-16.77 0z" fill="#fff"/>
 <path d="m780.55 804.16c-4.5664 4.6562-4.5664 12.109 0 16.766 2.25 2.1797 5.25 3.4062 8.3828 3.4258 3.9336-0.023438 7.5977-2.0039 9.7734-5.2812 2.1719-3.2773 2.5703-7.4219 1.0625-11.055-1.5078-3.6328-4.7266-6.2773-8.582-7.0508-3.8555-0.77344-7.8438 0.42578-10.637 3.1953z" fill="#fff"/>
</svg>
