<?xml version="1.0" encoding="UTF-8"?>
<svg width="1200pt" height="1200pt" version="1.1" viewBox="0 0 1200 1200" xmlns="http://www.w3.org/2000/svg">
 <g>
  <path d="m60 0h1080c33.137 0 60 33.137 60 60v1080c0 33.137-26.863 60-60 60h-1080c-33.137 0-60-33.137-60-60v-1080c0-33.137 26.863-60 60-60z" fill="#c83c51"/>
  <path d="m876.14 486.39h-89.402l-24.336-13.602h-12.773l13.98-67.258c1.1328-5.3672 3.7031-10.203 7.5586-13.98l64.766-64.766c3.7773-3.7773 5.8945-8.918 5.8945-14.207 0-5.3672-2.1172-10.43-5.8945-14.207-7.8594-7.7852-20.555-7.7852-28.488 0l-64.613 64.688c-9.4453 9.3711-15.871 21.312-18.516 34.309l-15.793 75.422h-17.984l-24.332 13.602h-62.125c-1.3594-39.297-29.699-71.867-67.031-79.578-6.7266-39.828-41.336-70.355-83.055-70.355-41.715 0-76.328 30.531-83.055 70.355-38.316 7.9336-67.184 41.941-67.184 82.523 0 39.449 27.281 72.551 63.934 81.77l18.82 59.02c-36.426 12.09-61.969 32.043-76.25 59.852-2.0391 3.8555-10.656 25.617-4.0039 36.578 2.3438 3.7773 6.2734 5.9688 10.73 5.9688h285.05l0.83203 9.8242-260.95 0.003906c-20.48 0-37.031 16.699-37.031 37.105s16.551 37.031 37.031 37.031l267.82-0.003906 0.90625 9.8242h-293.52c-6.7266 0-12.168 5.5156-12.168 12.316v38.316c0 16.852 13.602 30.531 30.379 30.531h303.57c16.777 0 30.453-13.602 30.531-30.457h147.44c11.863 0 21.613-8.918 22.672-20.629l29.246-319.59h7.332c11.109 0 20.102-9.0703 20.102-20.102v-10.203c0-11.109-8.9922-20.102-20.102-20.102zm-287.85 0h-11.562c-11.031 0-20.102 8.9922-20.102 20.102v10.203c0 8.7656 5.7422 16.246 13.68 18.969-12.547 13.602-30.457 22.219-50.406 22.219-37.785 0-68.543-30.758-68.543-68.543s30.758-68.543 68.543-68.543c36.801-0.003906 66.801 29.168 68.391 65.594zm-3.6289 56.754 8.1602 88.645c-19.27-6.9531-41.789-11.488-67.484-13.754l14.965-46.93c17.684-4.457 33.023-14.434 44.359-27.961zm-130.66-190.82c32.344 0 59.477 22.52 66.652 52.75-0.30078 0-0.52734-0.074219-0.75391-0.074219-26.676 0-50.406 12.469-65.898 31.816-15.492-19.348-39.223-31.816-65.898-31.816-0.22656 0-0.45312 0.074219-0.67969 0.074219 7.1055-30.227 34.234-52.75 66.578-52.75zm-134.36 137.01c0-37.785 30.684-68.543 68.469-68.543 23.578 0 44.438 12.016 56.754 30.23-5.8945 11.488-9.2969 24.484-9.2969 38.316 0 13.828 3.4023 26.828 9.2969 38.391-12.316 18.137-33.176 30.152-56.754 30.152-37.789-0.003906-68.469-30.762-68.469-68.547zm65.445 84.188c0.98438 0.074218 2.0391 0.15234 3.0234 0.15234 26.676 0 50.406-12.469 65.898-31.816 15.492 19.348 39.223 31.816 65.898 31.816 1.0586 0 2.0391-0.074219 3.0234-0.15234l-13.828 43.453c-7.1016-0.30078-14.359-0.52734-21.914-0.52734-32.648 0-61.062 3.0977-85.473 9.2969zm-66.578 144.34c-0.75391-4.3828 1.9648-15.871 4.7617-21.234 12.469-24.184 35.141-41.789 67.637-52.598 4.8359-1.6641 9.9766-3.0977 15.191-4.3828 22.973-5.7422 49.953-8.6172 81.09-8.6172 5.9688 0 11.715 0.074219 17.383 0.30078 5.5938 0.22656 10.957 0.52734 16.324 0.90625 28.793 2.2656 53.277 7.4805 73.379 15.793 4.7617 1.8906 9.3711 4.082 13.68 6.3477 19.723 10.578 34.082 24.711 43.227 42.246 2.7188 5.3672 5.4414 16.852 4.6836 21.234zm23.426 83.961c-12.395 0-22.445-10.051-22.445-22.371 0-12.395 10.051-22.52 22.445-22.52h290.57c12.316 0 22.371 10.125 22.371 22.52 0 12.316-10.051 22.371-22.371 22.371zm312.86 75.195c-0.074218 8.7656-7.1055 15.793-15.871 15.793h-303.57c-8.7656 0-15.793-7.1055-15.793-15.871l-0.003906-35.969h335.23zm228.53-360.32c0 3.9297-3.25 7.1055-7.1797 7.1055l-19.195-0.003906-30.305 331.38c-0.52734 5.0625-4.6836 8.8398-9.75 8.8398h-147.44v-25.391c0-6.8008-5.5156-12.316-12.316-12.316h-33.477l-0.90625-9.8242h9.75c20.406 0 37.031-16.625 37.031-37.031-0.007812-20.406-16.633-37.105-37.039-37.105h-16.473l-0.90625-9.8242h42.168c4.5352 0 8.4648-2.1914 10.73-5.9688 6.7266-10.957-1.9648-32.723-3.9297-36.578-11.863-22.82-31.059-40.43-57.734-52.672l-10.277-112-0.074219-1.5117h-19.27c-3.8555 0-7.1055-3.1758-7.1055-7.1055v-10.203c0-3.9297 3.25-7.1055 7.1055-7.1055h92.871l24.258-13.68h25.242l17.91-85.773c2.1914-10.43 7.332-20.102 14.965-27.734l64.688-64.613c2.7969-2.8711 7.2539-2.8711 10.125 0 1.2852 1.3594 2.0391 3.0977 2.0391 4.9883s-0.75781 3.7031-2.0391 4.9883l-64.766 64.766c-5.668 5.668-9.5234 12.773-11.109 20.555l-17.23 82.828h25.316l24.336 13.68 92.805-0.003906c3.9297 0 7.1797 3.1758 7.1797 7.1055z" fill="#f8f5f6"/>
 </g>
</svg>
