<?xml version="1.0" encoding="UTF-8"?>
<svg width="1200pt" height="1200pt" version="1.1" viewBox="0 0 1200 1200" xmlns="http://www.w3.org/2000/svg">
 <g>
  <path d="m60 0h1080c33.137 0 60 33.137 60 60v1080c0 33.137-26.863 60-60 60h-1080c-33.137 0-60-33.137-60-60v-1080c0-33.137 26.863-60 60-60z" fill="#c83c51"/>
  <path d="m646.1 666.5c-12.848 9.0703-29.473 14.359-46.098 14.359s-33.25-5.2891-46.098-14.359c-21.16 9.0703-38.543 27.207-46.855 49.879-2.2656 6.8008-4.5352 12.848-6.0469 19.648 24.184 27.207 59.703 43.832 99 43.832s74.816-17.383 99-43.832c-1.5117-6.8008-3.7773-13.602-6.0469-19.648-7.5586-22.672-24.941-40.055-46.855-49.879z" fill="#f8f5f6"/>
  <path d="m600 653.66c30.23 0 55.168-24.184 55.168-55.168 0-30.23-24.938-54.41-55.168-54.41s-55.168 24.184-55.168 54.41c0.003907 30.984 24.941 55.168 55.168 55.168z" fill="#f8f5f6"/>
  <path d="m943.85 552.39-114.11-82.371v-102.02c0-12.848-10.578-23.426-23.426-23.426h-40.809c-12.848 0-23.426 10.578-23.426 23.426v39.297l-129.98-94.461c-6.8008-5.2891-16.625-5.2891-24.184 0l-332.52 239.56c-18.895 13.602-19.648 40.809-2.2656 55.922 12.848 10.578 30.984 12.09 44.586 2.2656l44.586-31.738v275.84c0 20.402 16.625 36.273 36.273 36.273h442.85c20.402 0 36.273-16.625 36.273-36.273l0.003907-275.84 43.832 31.738c13.602 9.8242 31.738 9.0703 44.586-2.2656 18.141-15.113 16.629-42.316-2.2656-55.922zm-343.85 262.23c-92.953 0-167.77-74.816-167.77-167.77 0.003906-92.195 74.816-167.77 167.77-167.77s167.77 75.574 167.77 167.77c0 92.953-74.816 167.77-167.77 167.77z" fill="#f8f5f6"/>
 </g>
</svg>
