<?xml version="1.0" encoding="UTF-8"?>
<svg width="1200pt" height="1200pt" version="1.1" viewBox="0 0 1200 1200" xmlns="http://www.w3.org/2000/svg">
 <g>
  <path d="m60 0h1080c33.137 0 60 33.137 60 60v1080c0 33.137-26.863 60-60 60h-1080c-33.137 0-60-33.137-60-60v-1080c0-33.137 26.863-60 60-60z" fill="#c83c51"/>
  <path d="m800.74 255.21c-40.254 0.0625-78.844 16.082-107.3 44.547-28.465 28.461-44.484 67.051-44.547 107.3 0 129.89 138.04 255.53 143.94 260.72 4.4922 4.0547 11.328 4.0547 15.82 0 5.9023-5.1953 143.94-130.95 143.94-260.72-0.0625-40.254-16.082-78.844-44.547-107.3-28.461-28.465-67.051-44.484-107.3-44.547zm0 219.63c-18.02 0.03125-35.316-7.1016-48.07-19.832-12.758-12.727-19.934-30.004-19.945-48.023-0.007812-18.023 7.1445-35.309 19.887-48.051 12.742-12.742 30.031-19.895 48.051-19.887 18.02 0.011719 35.297 7.1875 48.027 19.941 12.727 12.758 19.859 30.055 19.828 48.074-0.03125 17.965-7.1797 35.188-19.887 47.891-12.703 12.707-29.926 19.855-47.891 19.887z" fill="#f8f5f6"/>
  <path d="m564.58 871.59h94.465v23.617h-94.465z" fill="#f8f5f6"/>
  <path d="m850.21 868.63c12.562-13.711 20.055-31.305 21.238-49.863 1.1797-18.559-4.0234-36.965-14.746-52.156l-19.246 13.578c7.5938 10.816 11.262 23.898 10.402 37.082-0.85547 13.188-6.1953 25.684-15.125 35.422z" fill="#f8f5f6"/>
  <path d="m316.61 492.67v7.3203h23.617v-7.3203c0.003907-12.16 3.8242-24.008 10.922-33.879 7.0977-9.8711 17.113-17.27 28.633-21.148l-7.4375-22.434c-16.234 5.4414-30.352 15.848-40.352 29.746-10 13.902-15.383 30.59-15.383 47.715z" fill="#f8f5f6"/>
  <path d="m423 411.07h94.465v23.617h-94.465z" fill="#f8f5f6"/>
  <path d="m564.7 411.07h58.922v23.617h-58.922z" fill="#f8f5f6"/>
  <path d="m451.93 623.74 8.3438-22.094 88.371 33.375-8.3438 22.094z" fill="#f8f5f6"/>
  <path d="m345.77 540.96-21.254 10.035c19.836 42.035 59.039 43.926 82.656 55.852l8.3828-22.082c-25.148-11.922-54.906-12.395-69.785-43.805z" fill="#f8f5f6"/>
  <path d="m706.27 895.2c85.02 0 85.371 0.70703 96.234-0.94531l-3.6602-23.617c-7.793 1.1797-4.9609 0-92.574 0.70703z" fill="#f8f5f6"/>
  <path d="m717.02 724.03 8.3477-22.09 88.367 33.391-8.3477 22.09z" fill="#f8f5f6"/>
  <path d="m584.46 673.92 8.3477-22.09 88.367 33.391-8.3477 22.09z" fill="#f8f5f6"/>
  <path d="m269.97 895.2h259.18c-2.5273-27.418-13.707-53.32-31.918-73.973-18.207-20.648-42.508-34.98-69.395-40.922l4.3672-22.199h0.003907c1.3984-6.9258-0.375-14.121-4.8438-19.598-4.6289-5.6367-11.602-8.8203-18.891-8.6211h-18.422c-7.0859-0.019531-13.805 3.1445-18.301 8.6211-4.4688 5.4766-6.2461 12.672-4.8438 19.598l4.3672 22.199h0.003906c-26.887 5.9414-51.188 20.273-69.398 40.922-18.207 20.652-29.387 46.555-31.914 73.973z" fill="#f8f5f6"/>
  <path d="m245.76 918.82h307.01v23.617h-307.01z" fill="#f8f5f6"/>
 </g>
</svg>
