<?xml version="1.0" encoding="UTF-8"?>
<svg width="1200pt" height="1200pt" version="1.1" viewBox="0 0 1200 1200" xmlns="http://www.w3.org/2000/svg">
 <g>
  <path d="m60 0h1080c33.137 0 60 33.137 60 60v1080c0 33.137-26.863 60-60 60h-1080c-33.137 0-60-33.137-60-60v-1080c0-33.137 26.863-60 60-60z" fill="#c83c51"/>
  <path d="m501.76 584.89v30.23h337.05l-86.152 86.148 21.16 21.918 123.18-123.18-123.18-123.18-21.16 21.914 86.152 86.152z" fill="#f8f5f6"/>
  <path d="m705.8 705.8h-30.227v90.688h-317.4v-392.97h317.4v90.688h30.227v-120.91h-377.86v453.43h377.86z" fill="#f8f5f6"/>
 </g>
</svg>
