<?xml version="1.0" encoding="UTF-8"?>
<svg width="1200pt" height="1200pt" version="1.1" viewBox="0 0 1200 1200" xmlns="http://www.w3.org/2000/svg">
 <g>
  <path d="m60 0h1080c33.137 0 60 33.137 60 60v1080c0 33.137-26.863 60-60 60h-1080c-33.137 0-60-33.137-60-60v-1080c0-33.137 26.863-60 60-60z" fill="#c83c51"/>
  <path d="m854.01 418.85c0-4.1719 3.3828-7.5547 7.5547-7.5547h78.512c4.3477 0 7.875 3.5195 7.875 7.8672v131.74c0 4.3477-3.5273 7.8672-7.875 7.8672h-17.258v362.68c0 4.3477-3.5273 7.875-7.875 7.875h-629.88c-4.3477 0-7.875-3.5273-7.875-7.875v-362.68h-17.254c-4.3477 0-7.8672-3.5195-7.8672-7.8672v-131.74c0-4.3477 3.5195-7.8672 7.8672-7.8672h232.92c-2.582-9.3945-3.9609-19.293-3.9609-29.504 0-61.328 49.785-111.12 111.11-111.12 61.332 0 111.11 49.789 111.11 111.12 0 10.211-1.375 20.109-3.9609 29.504h101.51c4.1719 0 7.5547 3.3828 7.5547 7.5547v0.63281c0 2.0039-0.79688 3.9219-2.2109 5.3438-1.4141 1.4141-3.3359 2.2109-5.3438 2.2109h-107.16c-1.3516 3.0195-2.8281 5.9688-4.4297 8.832h235.12v-8.832h-70.637c-4.1719 0-7.5547-3.3828-7.5547-7.5547zm-261.88 73.781c-22.156-1.5508-42.531-9.6172-59.223-22.289v48.113h59.223zm74.977-22.289c-16.695 12.672-37.066 20.738-59.227 22.289v25.824h59.227zm75.582 443.23h121.03v-180.91c0-25.707-27.547-45.473-60.516-45.473-32.961 0-60.516 19.766-60.516 45.473zm92.723-125.78c6.9492 0 12.59 5.6406 12.59 12.59s-5.6406 12.59-12.59 12.59-12.59-5.6406-12.59-12.59 5.6406-12.59 12.59-12.59zm-148.99-336.18c-1.1523 1.4219-2.3477 2.8203-3.5703 4.1914v62.645h59.23v-66.836zm-187.92-24.582h-230.69v8.832h235.12c-1.6055-2.8633-3.0781-5.8125-4.4336-8.832zm18.664 28.773c-1.2266-1.3711-2.418-2.7695-3.5742-4.1914h-55.66v66.836h59.234zm-249.36-4.1914v66.836h24.438v-66.836zm664.39 66.836v-66.836h-24.441v66.836zm-52.742 395.12h27.617v-354.8h-614.15v354.8h434.02v-180.91c0-33.219 33.672-61.215 76.258-61.215 42.582 0 76.258 27.996 76.258 61.215zm-490.47-36.359c0 4.1758-3.3828 7.5586-7.5547 7.5586h-54.961c-4.3477 0-7.8672-3.5195-7.8672-7.8711v-276.86c0-4.3477 3.5195-7.875 7.8672-7.875h162.98c4.3516 0 7.8711 3.5273 7.8711 7.875v276.86c0 4.3516-3.5195 7.8711-7.8711 7.8711h-55.117c-4.1719 0-7.5625-3.3828-7.5625-7.5586v-0.62891c0-2 0.79688-3.9219 2.2188-5.3438 1.4141-1.4141 3.3359-2.2148 5.3438-2.2148h47.242v-261.11h-147.23v261.11h47.086c4.1719 0 7.5547 3.3828 7.5547 7.5586v0.62891zm41.469-167.35c1.7148-4 6.3438-5.8438 10.336-4.1367 4 1.7188 5.8477 6.3477 4.1367 10.34l-33.176 77.301c-1.707 3.9961-6.3477 5.8438-10.336 4.1328-3.9922-1.7148-5.8398-6.3438-4.1289-10.336zm-26.289-26.293c1.7109-3.9922 6.3477-5.8477 10.34-4.1289 3.9883 1.7109 5.8438 6.3477 4.1289 10.34l-33.168 77.301c-1.7188 3.9883-6.3477 5.8438-10.336 4.125-3.9922-1.7109-5.8477-6.3398-4.1367-10.336zm294.93-83.527v276.86c0 4.3516-3.5273 7.8711-7.875 7.8711h-162.97c-4.3477 0-7.875-3.5195-7.875-7.8711v-276.86c0-4.3477 3.5273-7.875 7.875-7.875h162.97c4.3477 0 7.875 3.5273 7.875 7.875zm-15.75 7.8672h-147.23v261.11h147.23zm-51.113 101.95c1.7109-4 6.3398-5.8438 10.34-4.1367 3.9883 1.7188 5.8359 6.3477 4.125 10.34l-33.164 77.301c-1.7188 3.9961-6.3477 5.8438-10.34 4.1328-3.9961-1.7148-5.8438-6.3438-4.1328-10.336zm-26.293-26.293c1.7188-3.9922 6.3477-5.8477 10.34-4.1289 3.9883 1.7109 5.8438 6.3477 4.1328 10.34l-33.172 77.301c-1.7109 3.9883-6.3477 5.8438-10.34 4.125-3.9883-1.7109-5.8438-6.3398-4.125-10.336zm-338.14-140.55h664.39v-8.832h-664.39zm99.406-91.41h-59.227v66.836h59.227zm449.84 0h-59.23v66.836h59.23zm-217.05-165.2c-52.633 0-95.367 42.734-95.367 95.375 0 52.637 42.734 95.371 95.367 95.371 52.641 0 95.371-42.734 95.371-95.371 0-52.641-42.73-95.375-95.371-95.375zm-40.895 37.656c0-4.3477 3.5273-7.875 7.8672-7.875 4.3477 0 7.875 3.5273 7.875 7.875v35.484c0 4.3398-3.5273 7.8672-7.875 7.8672-4.3398 0-7.8672-3.5273-7.8672-7.8672zm66.051 63.898c-12.438-4.1953-22.145-18.066-22.145-35.23 0-20.656 14.062-36.543 30.02-36.543 15.953 0 30.016 15.887 30.016 36.543 0 17.164-9.707 31.035-22.141 35.23v64.121c0 4.3477-3.5352 7.875-7.875 7.875-4.3516 0-7.875-3.5273-7.875-7.875zm7.875-14.434c3.7227 0 6.9844-2.1758 9.4258-5.3359 3.0469-3.9531 4.8477-9.4336 4.8477-15.461 0-6.0195-1.8008-11.504-4.8477-15.453-2.4414-3.1641-5.7031-5.3398-9.4258-5.3398-3.7266 0-6.9883 2.1758-9.4258 5.3398-3.0586 3.9492-4.8516 9.4336-4.8516 15.453 0 6.0273 1.793 11.508 4.8516 15.461 2.4375 3.1602 5.6992 5.3359 9.4258 5.3359zm-73.926 14.891c-12.977-2.9648-22.152-13.258-22.152-24.742v-39.613c0-4.3477 3.5273-7.875 7.875-7.875 4.3398 0 7.8672 3.5273 7.8672 7.875v39.613c0 5.9609 6.6992 9.8516 14.047 9.8594h0.16797c0.023438-0.007813 0.046875-0.007813 0.0625-0.007813 0.066406 0 0.13672 0 0.20312 0.007813 7.3828 0 14.07-3.8984 14.07-9.8594v-39.613c0-4.3477 3.5273-7.875 7.875-7.875 4.3438 0 7.8711 3.5273 7.8711 7.875v39.613c0 11.484-9.168 21.777-22.145 24.742v63.664c0 4.3477-3.5273 7.875-7.875 7.875-4.3398 0-7.8672-3.5273-7.8672-7.875zm332.91 63.191h-59.223v66.836h59.223zm-449.83 0h-59.223v66.836h59.223z" fill="#f8f5f6" fill-rule="evenodd"/>
 </g>
</svg>
