<?xml version="1.0" encoding="UTF-8"?>
<svg width="1200pt" height="1200pt" version="1.1" viewBox="0 0 1200 1200" xmlns="http://www.w3.org/2000/svg">
 <defs>
  <clipPath id="a">
   <path d="m304 222.14h592v755.71h-592z"/>
  </clipPath>
 </defs>
 <path d="m60 0h1080c33.137 0 60 33.137 60 60v1080c0 33.137-26.863 60-60 60h-1080c-33.137 0-60-33.137-60-60v-1080c0-33.137 26.863-60 60-60z" fill="#c83c51"/>
 <g clip-path="url(#a)">
  <path d="m895.2 517.34c0.015625-76.246-29.469-149.54-82.285-204.54-52.812-54.996-124.86-87.422-201.04-90.488-76.188-3.0664-150.61 23.461-207.67 74.031-57.062 50.57-92.348 121.26-98.461 197.26s17.418 151.42 65.664 210.46c48.246 59.043 117.47 97.125 193.16 106.28v49.426h-11.809c-6.5195 0-11.809 5.2891-11.809 11.809v94.465c0 3.1328 1.2461 6.1367 3.4609 8.3477 2.2109 2.2148 5.2148 3.4609 8.3477 3.4609h94.465c3.1328 0 6.1328-1.2461 8.3477-3.4609 2.2148-2.2109 3.4609-5.2148 3.4609-8.3477v-94.465c0-3.1328-1.2461-6.1328-3.4609-8.3477-2.2148-2.2148-5.2148-3.4609-8.3477-3.4609h-11.809v-49.426c71.594-8.7383 137.52-43.348 185.37-97.316 47.848-53.965 74.312-123.57 74.41-195.69zm-566.79 0c-0.019531-70.719 27.551-138.66 76.848-189.37 49.297-50.707 116.43-80.188 187.12-82.172 70.695-1.9844 139.38 23.691 191.43 71.559 52.062 47.867 83.398 114.15 87.344 184.77 3.9453 70.613-19.809 139.98-66.211 193.35s-111.79 86.535-182.27 92.441c-3.8984 0.32031-7.5117 0.56641-11.039 0.73047-3.8477 0.16406-7.6992 0.29688-11.594 0.29688-3.8984 0-7.7461-0.12891-11.594-0.29688-3.543-0.16406-7.1445-0.41406-11.039-0.73047h-0.003907c-67.844-5.7344-131.07-36.715-177.17-86.812-46.105-50.098-71.738-115.67-71.828-183.76zm307.01 436.9h-70.848v-23.617h35.426-0.003906c6.5234 0 11.809-5.2852 11.809-11.805 0-6.5234-5.2852-11.809-11.809-11.809h-35.422v-23.617h70.848zm-23.617-141.97v47.504h-23.613v-47.504c8.1562 0.36719 15.453 0.36719 23.613 0z" fill="#fff"/>
 </g>
 <path d="m600 765.31c65.766 0 128.84-26.125 175.34-72.625 46.5-46.504 72.625-109.58 72.625-175.34s-26.125-128.84-72.625-175.34c-46.504-46.504-109.58-72.629-175.34-72.629s-128.84 26.125-175.34 72.629-72.629 109.57-72.629 175.34c0.078125 65.742 26.227 128.77 72.711 175.26 46.488 46.488 109.52 72.637 175.26 72.711zm0-472.32c59.504 0 116.57 23.637 158.64 65.711s65.711 99.141 65.711 158.64c0 59.504-23.637 116.57-65.711 158.64s-99.141 65.711-158.64 65.711c-59.5 0-116.57-23.637-158.64-65.711s-65.711-99.141-65.711-158.64c0.066406-59.48 23.723-116.51 65.785-158.57 42.059-42.062 99.086-65.719 158.57-65.785z" fill="#fff"/>
 <path d="m600 718.08c53.223-0.058593 104.25-21.227 141.88-58.859 37.633-37.633 58.801-88.656 58.859-141.88 0-6.5195-5.2852-11.805-11.809-11.805-6.5195 0-11.809 5.2852-11.809 11.805-0.050782 46.961-18.727 91.984-51.93 125.19-33.207 33.203-78.23 51.879-125.19 51.93-6.5195 0-11.805 5.2891-11.805 11.809 0 6.5234 5.2852 11.809 11.805 11.809z" fill="#fff"/>
 <path d="m517.34 527.97v107.45c0 6.5195 5.2891 11.809 11.809 11.809 6.5234 0 11.809-5.2891 11.809-11.809v-107.45c13.328-2.7422 25.301-9.9922 33.906-20.531 8.6016-10.539 13.309-23.723 13.328-37.328 0-28.34-22.992-82.656-59.039-82.656-36.051 0-59.039 54.316-59.039 82.656h-0.003907c0.015625 13.605 4.7227 26.789 13.328 37.328 8.6016 10.539 20.578 17.789 33.902 20.531zm11.809-116.9c16.426 0 35.426 35.73 35.426 59.039 0 12.656-6.7539 24.352-17.711 30.68-10.961 6.3281-24.465 6.3281-35.426 0-10.961-6.3281-17.711-18.023-17.711-30.68 0-23.309 18.996-59.039 35.422-59.039z" fill="#fff"/>
 <path d="m659.04 527.97v107.45c0 6.5195 5.2852 11.809 11.809 11.809 6.5195 0 11.805-5.2891 11.805-11.809v-107.45c13.328-2.7422 25.301-9.9922 33.906-20.531 8.6016-10.539 13.309-23.723 13.328-37.328v-70.848c0-6.5234-5.2891-11.809-11.809-11.809s-11.809 5.2852-11.809 11.809v59.039h-23.617v-59.039c0-6.5234-5.2852-11.809-11.805-11.809-6.5234 0-11.809 5.2852-11.809 11.809v59.039h-23.617v-59.039c0-6.5234-5.2852-11.809-11.809-11.809-6.5195 0-11.809 5.2852-11.809 11.809v70.848c0.019531 13.605 4.7266 26.789 13.328 37.328 8.6055 10.539 20.578 17.789 33.906 20.531zm45.211-46.051c-3.2695 9.2734-10.25 16.766-19.266 20.691-9.0195 3.9258-19.258 3.9258-28.273 0-9.0195-3.9258-15.996-11.418-19.27-20.691z" fill="#fff"/>
 <path d="m777.12 481.92c5.5664-0.054687 10.32-4.0273 11.367-9.4961 1.043-5.4648-1.9102-10.91-7.0625-13.016-5.1523-2.1055-11.074-0.28516-14.156 4.3516-3.082 4.6328-2.4648 10.801 1.4688 14.734 2.2656 2.1562 5.2578 3.3789 8.3828 3.4258z" fill="#fff"/>
 <path d="m532.58 686.08c-3.3555 3.3867-4.3516 8.457-2.5156 12.855 1.832 4.4023 6.1328 7.2695 10.898 7.2695 4.7695 0 9.0664-2.8672 10.902-7.2695 1.832-4.3984 0.83984-9.4688-2.5195-12.855-4.7422-4.3516-12.023-4.3516-16.766 0z" fill="#fff"/>
</svg>
